<svg xmlns="http://www.w3.org/2000/svg" width="356" height="178" fill="none" viewBox="0 0 356 178"><g opacity=".2"><mask id="mask0_7107_191040" width="356" height="178" x="0" y="0" maskUnits="userSpaceOnUse" style="mask-type:alpha"><rect width="354.918" height="177.459" x=".541" fill="url(#paint0_linear_7107_191040)"/></mask><g mask="url(#mask0_7107_191040)"><mask id="mask1_7107_191040" width="356" height="178" x="0" y="0" maskUnits="userSpaceOnUse" style="mask-type:alpha"><rect width="354.918" height="177.459" x=".541" fill="url(#paint1_linear_7107_191040)"/></mask><g mask="url(#mask1_7107_191040)"><rect width="29.576" height="29.576" x=".541" stroke="#3C445C" stroke-width=".616"/><rect width="29.576" height="29.576" x="30.117" fill="url(#paint2_linear_7107_191040)" stroke="#3C445C" stroke-width=".616"/><rect width="29.576" height="29.576" x="59.694" stroke="#3C445C" stroke-width=".616"/><rect width="29.576" height="29.576" x="89.27" stroke="#3C445C" stroke-width=".616"/><rect width="29.576" height="29.576" x="118.847" stroke="#3C445C" stroke-width=".616"/><rect width="29.576" height="29.576" x="148.424" stroke="#3C445C" stroke-width=".616"/><rect width="29.576" height="29.576" x="178" stroke="#3C445C" stroke-width=".616"/><rect width="29.576" height="29.576" x="207.576" stroke="#3C445C" stroke-width=".616"/><rect width="29.576" height="29.576" x="237.153" stroke="#3C445C" stroke-width=".616"/><rect width="29.576" height="29.576" x="266.729" stroke="#3C445C" stroke-width=".616"/><rect width="29.576" height="29.576" x="296.306" stroke="#3C445C" stroke-width=".616"/><rect width="29.576" height="29.576" x="325.883" stroke="#3C445C" stroke-width=".616"/><rect width="29.576" height="29.576" x=".541" y="29.577" stroke="#3C445C" stroke-width=".616"/><rect width="29.576" height="29.576" x="30.117" y="29.577" stroke="#3C445C" stroke-width=".616"/><rect width="29.576" height="29.576" x="59.694" y="29.577" stroke="#3C445C" stroke-width=".616"/><rect width="29.576" height="29.576" x="89.27" y="29.577" stroke="#3C445C" stroke-width=".616"/><rect width="29.576" height="29.576" x="118.847" y="29.577" fill="url(#paint3_linear_7107_191040)" stroke="#3C445C" stroke-width=".616"/><rect width="29.576" height="29.576" x="148.424" y="29.577" stroke="#3C445C" stroke-width=".616"/><rect width="29.576" height="29.576" x="178" y="29.577" stroke="#3C445C" stroke-width=".616"/><rect width="29.576" height="29.576" x="207.576" y="29.577" stroke="#3C445C" stroke-width=".616"/><rect width="29.576" height="29.576" x="237.153" y="29.577" stroke="#3C445C" stroke-width=".616"/><rect width="29.576" height="29.576" x="266.729" y="29.577" stroke="#3C445C" stroke-width=".616"/><rect width="29.576" height="29.576" x="296.306" y="29.577" stroke="#3C445C" stroke-width=".616"/><rect width="29.576" height="29.576" x="325.883" y="29.577" stroke="#3C445C" stroke-width=".616"/><rect width="29.576" height="29.576" x=".541" y="59.153" stroke="#3C445C" stroke-width=".616"/><rect width="29.576" height="29.576" x="30.117" y="59.153" stroke="#3C445C" stroke-width=".616"/><rect width="29.576" height="29.576" x="59.694" y="59.153" stroke="#3C445C" stroke-width=".616"/><rect width="29.576" height="29.576" x="89.27" y="59.153" stroke="#3C445C" stroke-width=".616"/><rect width="29.576" height="29.576" x="118.847" y="59.153" stroke="#3C445C" stroke-width=".616"/><rect width="29.576" height="29.576" x="148.424" y="59.153" stroke="#3C445C" stroke-width=".616"/><rect width="29.576" height="29.576" x="178" y="59.153" stroke="#3C445C" stroke-width=".616"/><rect width="29.576" height="29.576" x="207.576" y="59.153" fill="url(#paint4_linear_7107_191040)" stroke="#3C445C" stroke-width=".616"/><rect width="29.576" height="29.576" x="237.153" y="59.153" stroke="#3C445C" stroke-width=".616"/><rect width="29.576" height="29.576" x="266.729" y="59.153" stroke="#3C445C" stroke-width=".616"/><rect width="29.576" height="29.576" x="296.306" y="59.153" stroke="#3C445C" stroke-width=".616"/><rect width="29.576" height="29.576" x="325.883" y="59.153" stroke="#3C445C" stroke-width=".616"/><rect width="29.576" height="29.576" x=".541" y="88.73" stroke="#3C445C" stroke-width=".616"/><rect width="29.576" height="29.576" x="30.117" y="88.73" stroke="#3C445C" stroke-width=".616"/><rect width="29.576" height="29.576" x="59.694" y="88.73" stroke="#3C445C" stroke-width=".616"/><rect width="29.576" height="29.576" x="89.27" y="88.73" stroke="#3C445C" stroke-width=".616"/><rect width="29.576" height="29.576" x="118.847" y="88.73" stroke="#3C445C" stroke-width=".616"/><rect width="29.576" height="29.576" x="148.424" y="88.73" stroke="#3C445C" stroke-width=".616"/><rect width="29.576" height="29.576" x="178" y="88.73" stroke="#3C445C" stroke-width=".616"/><rect width="29.576" height="29.576" x="207.576" y="88.73" stroke="#3C445C" stroke-width=".616"/><rect width="29.576" height="29.576" x="237.153" y="88.73" stroke="#3C445C" stroke-width=".616"/><rect width="29.576" height="29.576" x="266.729" y="88.73" stroke="#3C445C" stroke-width=".616"/><rect width="29.576" height="29.576" x="296.306" y="88.73" stroke="#3C445C" stroke-width=".616"/><rect width="29.576" height="29.576" x="325.883" y="88.73" stroke="#3C445C" stroke-width=".616"/><rect width="29.576" height="29.576" x=".541" y="118.306" stroke="#3C445C" stroke-width=".616"/><rect width="29.576" height="29.576" x="30.117" y="118.306" stroke="#3C445C" stroke-width=".616"/><rect width="29.576" height="29.576" x="59.694" y="118.306" stroke="#3C445C" stroke-width=".616"/><rect width="29.576" height="29.576" x="89.27" y="118.306" stroke="#3C445C" stroke-width=".616"/><rect width="29.576" height="29.576" x="118.847" y="118.306" stroke="#3C445C" stroke-width=".616"/><rect width="29.576" height="29.576" x="148.424" y="118.306" fill="url(#paint5_linear_7107_191040)" stroke="#3C445C" stroke-width=".616"/><rect width="29.576" height="29.576" x="178" y="118.306" stroke="#3C445C" stroke-width=".616"/><rect width="29.576" height="29.576" x="207.576" y="118.306" stroke="#3C445C" stroke-width=".616"/><rect width="29.576" height="29.576" x="237.153" y="118.306" stroke="#3C445C" stroke-width=".616"/><rect width="29.576" height="29.576" x="266.729" y="118.306" stroke="#3C445C" stroke-width=".616"/><rect width="29.576" height="29.576" x="296.306" y="118.306" stroke="#3C445C" stroke-width=".616"/><rect width="29.576" height="29.576" x="325.883" y="118.306" stroke="#3C445C" stroke-width=".616"/><rect width="29.576" height="29.576" x=".541" y="147.883" stroke="#3C445C" stroke-width=".616"/><rect width="29.576" height="29.576" x="30.117" y="147.883" stroke="#3C445C" stroke-width=".616"/><rect width="29.576" height="29.576" x="59.694" y="147.883" stroke="#3C445C" stroke-width=".616"/><rect width="29.576" height="29.576" x="89.27" y="147.883" stroke="#3C445C" stroke-width=".616"/><rect width="29.576" height="29.576" x="118.847" y="147.883" stroke="#3C445C" stroke-width=".616"/><rect width="29.576" height="29.576" x="148.424" y="147.883" stroke="#3C445C" stroke-width=".616"/><rect width="29.576" height="29.576" x="178" y="147.883" stroke="#3C445C" stroke-width=".616"/><rect width="29.576" height="29.576" x="207.576" y="147.883" stroke="#3C445C" stroke-width=".616"/><rect width="29.576" height="29.576" x="237.153" y="147.883" stroke="#3C445C" stroke-width=".616"/><rect width="29.576" height="29.576" x="266.729" y="147.883" stroke="#3C445C" stroke-width=".616"/><rect width="29.576" height="29.576" x="296.306" y="147.883" fill="url(#paint6_linear_7107_191040)" stroke="#3C445C" stroke-width=".616"/><rect width="29.576" height="29.576" x="325.883" y="147.883" stroke="#3C445C" stroke-width=".616"/></g></g></g><rect width="194.444" height="70.833" x="80.778" y="82.314" fill="#F9F9F9" rx="5.556"/><rect width="193.75" height="70.139" x="81.125" y="82.661" stroke="url(#paint7_linear_7107_191040)" stroke-opacity=".24" stroke-width=".694" rx="5.208"/><rect width="72.222" height="9.722" x="91.889" y="94.814" fill="#2B3245" opacity=".12" rx="4.861"/><rect width="136.111" height="9.722" x="91.889" y="110.092" fill="#2B3245" opacity=".12" rx="4.861"/><g filter="url(#filter0_d_7107_191040)"><path fill="url(#paint8_linear_7107_191040)" d="M236.333 97.8693C236.333 96.3135 236.333 95.5357 236.636 94.9415C236.902 94.4188 237.327 93.9939 237.85 93.7276C238.444 93.4248 239.222 93.4248 240.778 93.4248H259.667C261.222 93.4248 262 93.4248 262.594 93.7276C263.117 93.9939 263.542 94.4188 263.808 94.9415C264.111 95.5357 264.111 96.3135 264.111 97.8692V116.758C264.111 118.314 264.111 119.092 263.808 119.686C263.542 120.209 263.117 120.634 262.594 120.9C262 121.203 261.222 121.203 259.667 121.203H240.778C239.222 121.203 238.444 121.203 237.85 120.9C237.327 120.634 236.902 120.209 236.636 119.686C236.333 119.092 236.333 118.314 236.333 116.758V97.8693Z"/><path stroke="#000" stroke-opacity=".08" stroke-width=".139" d="M236.403 97.8693C236.403 97.0903 236.403 96.5102 236.44 96.0505C236.478 95.5916 236.552 95.2587 236.698 94.973C236.958 94.4634 237.372 94.0491 237.881 93.7894C238.167 93.6439 238.5 93.5694 238.959 93.5319C239.419 93.4943 239.999 93.4942 240.778 93.4942H259.667C260.446 93.4942 261.026 93.4943 261.485 93.5319C261.944 93.5694 262.277 93.6439 262.563 93.7894C263.072 94.0491 263.487 94.4634 263.746 94.973C263.892 95.2587 263.966 95.5916 264.004 96.0505C264.042 96.5102 264.042 97.0903 264.042 97.8692V116.758C264.042 117.537 264.042 118.117 264.004 118.577C263.966 119.036 263.892 119.369 263.746 119.654C263.487 120.164 263.072 120.578 262.563 120.838C262.277 120.984 261.944 121.058 261.485 121.096C261.026 121.133 260.446 121.133 259.667 121.133H240.778C239.999 121.133 239.419 121.133 238.959 121.096C238.5 121.058 238.167 120.984 237.881 120.838C237.372 120.578 236.958 120.164 236.698 119.654C236.552 119.369 236.478 119.036 236.44 118.577C236.403 118.117 236.403 117.537 236.403 116.758V97.8693Z"/></g><rect width="172.222" height="9.722" x="91.889" y="132.313" fill="#2B3245" opacity=".12" rx="4.861"/><defs><filter id="filter0_d_7107_191040" width="39.683" height="39.683" x="230.381" y="89.457" color-interpolation-filters="sRGB" filterUnits="userSpaceOnUse"><feFlood flood-opacity="0" result="BackgroundImageFix"/><feColorMatrix in="SourceAlpha" result="hardAlpha" type="matrix" values="0 0 0 0 0 0 0 0 0 0 0 0 0 0 0 0 0 0 127 0"/><feOffset dy="1.984"/><feGaussianBlur stdDeviation="2.976"/><feComposite in2="hardAlpha" operator="out"/><feColorMatrix type="matrix" values="0 0 0 0 0 0 0 0 0 0 0 0 0 0 0 0 0 0 0.16 0"/><feBlend in2="BackgroundImageFix" mode="normal" result="effect1_dropShadow_7107_191040"/><feBlend in="SourceGraphic" in2="effect1_dropShadow_7107_191040" mode="normal" result="shape"/></filter><linearGradient id="paint0_linear_7107_191040" x1="355.459" x2=".541" y1="88.73" y2="88.73" gradientUnits="userSpaceOnUse"><stop stop-color="#D9D9D9" stop-opacity="0"/><stop offset=".5" stop-color="#D9D9D9"/><stop offset="1" stop-color="#D9D9D9" stop-opacity="0"/></linearGradient><linearGradient id="paint1_linear_7107_191040" x1="178" x2="178" y1="0" y2="177.459" gradientUnits="userSpaceOnUse"><stop stop-color="#D9D9D9" stop-opacity="0"/><stop offset=".494" stop-color="#D9D9D9"/><stop offset="1" stop-color="#D9D9D9" stop-opacity="0"/></linearGradient><linearGradient id="paint2_linear_7107_191040" x1="44.906" x2="44.906" y1="0" y2="29.576" gradientUnits="userSpaceOnUse"><stop stop-color="#3C445C" stop-opacity="0"/><stop offset="1" stop-color="#3C445C"/></linearGradient><linearGradient id="paint3_linear_7107_191040" x1="133.635" x2="133.635" y1="29.577" y2="59.153" gradientUnits="userSpaceOnUse"><stop stop-color="#3C445C" stop-opacity="0"/><stop offset="1" stop-color="#3C445C"/></linearGradient><linearGradient id="paint4_linear_7107_191040" x1="222.365" x2="222.365" y1="59.153" y2="88.729" gradientUnits="userSpaceOnUse"><stop stop-color="#3C445C" stop-opacity="0"/><stop offset="1" stop-color="#3C445C"/></linearGradient><linearGradient id="paint5_linear_7107_191040" x1="163.212" x2="163.212" y1="118.306" y2="147.883" gradientUnits="userSpaceOnUse"><stop stop-color="#3C445C" stop-opacity="0"/><stop offset="1" stop-color="#3C445C"/></linearGradient><linearGradient id="paint6_linear_7107_191040" x1="311.094" x2="311.094" y1="147.883" y2="177.459" gradientUnits="userSpaceOnUse"><stop stop-color="#3C445C" stop-opacity="0"/><stop offset="1" stop-color="#3C445C"/></linearGradient><linearGradient id="paint7_linear_7107_191040" x1="178" x2="178" y1="82.314" y2="153.147" gradientUnits="userSpaceOnUse"><stop stop-color="#38415A"/><stop offset="1" stop-color="#2B3245" stop-opacity=".4"/></linearGradient><linearGradient id="paint8_linear_7107_191040" x1="250.222" x2="250.222" y1="93.425" y2="121.203" gradientUnits="userSpaceOnUse"><stop stop-color="#F45D68"/><stop offset="1" stop-color="#FFCA00"/></linearGradient></defs></svg>