<svg xmlns="http://www.w3.org/2000/svg" width="32" height="33" fill="none" viewBox="0 0 32 33"><rect width="32" height="32" y=".5" fill="#3370FF" rx="3.765"/><mask id="mask0_559_168174" width="32" height="33" x="0" y="0" maskUnits="userSpaceOnUse" style="mask-type:alpha"><rect width="32" height="32" y=".5" fill="#3370FF" rx="3.765"/></mask><g mask="url(#mask0_559_168174)"><g filter="url(#filter0_f_559_168174)"><circle cx="33.97" cy="40.647" r="30.882" fill="#D04BFF" fill-opacity=".61"/></g></g><path fill="#fff" d="M4.70703 13.1114C4.70703 11.003 4.70703 9.94877 5.11736 9.14346C5.47829 8.43508 6.05422 7.85915 6.7626 7.49822C7.56791 7.08789 8.62213 7.08789 10.7306 7.08789H21.2717C23.3802 7.08789 24.4344 7.08789 25.2397 7.49822C25.9481 7.85915 26.524 8.43508 26.8849 9.14346C27.2953 9.94877 27.2953 11.003 27.2953 13.1114V18.0055C27.2953 20.114 27.2953 21.1682 26.8849 21.9735C26.524 22.6819 25.9481 23.2578 25.2397 23.6187C24.4344 24.0291 23.3802 24.0291 21.2717 24.0291H12.707L9.72491 26.6798C9.32745 27.0331 9.12872 27.2098 8.95993 27.2161C8.81328 27.2216 8.67248 27.1584 8.57916 27.0451C8.47174 26.9148 8.47174 26.6489 8.47174 26.1171V24.0291C8.47174 24.0291 8.47174 24.0291 8.47174 24.0291C6.39255 24.0291 4.70703 22.3436 4.70703 20.2644C4.70703 20.2644 4.70703 20.2644 4.70703 20.2644V13.1114Z"/><rect width="2.824" height="5.19" x="10.191" y="12.964" fill="#2B63E7" rx="1.412"/><rect width="2.824" height="5.19" x="18.984" y="12.964" fill="#2B63E7" rx="1.412"/><defs><filter id="filter0_f_559_168174" width="111.176" height="111.176" x="-21.618" y="-14.941" color-interpolation-filters="sRGB" filterUnits="userSpaceOnUse"><feFlood flood-opacity="0" result="BackgroundImageFix"/><feBlend in="SourceGraphic" in2="BackgroundImageFix" mode="normal" result="shape"/><feGaussianBlur result="effect1_foregroundBlur_559_168174" stdDeviation="12.353"/></filter></defs></svg>