<svg xmlns="http://www.w3.org/2000/svg" width="24" height="24" fill="none" viewBox="0 0 24 24"><mask id="mask0_986_803" width="24" height="24" x="0" y="0" maskUnits="userSpaceOnUse" style="mask-type:alpha"><rect width="24" height="24" fill="#D9D9D9"/></mask><g mask="url(#mask0_986_803)"><path fill="#4D53E8" d="M3.86518 7.8642C4.25987 6.14206 5.65388 4.92033 7.3765 4.52772C8.60672 4.24733 10.2018 4 12.0008 4C13.7998 4 15.3948 4.24733 16.625 4.52772C18.3476 4.92033 19.7416 6.14205 20.1363 7.86417C20.3505 8.79897 20.5176 9.98275 20.5176 11.4015C20.5176 13.0062 20.3039 14.2936 20.0499 15.257C19.6676 16.7072 18.5127 17.7582 17.0574 18.1209C15.8478 18.4223 14.1477 18.7016 12.0008 18.7016C9.85386 18.7016 8.1538 18.4223 6.94411 18.1209C5.48885 17.7582 4.33393 16.7072 3.9516 15.257C3.69761 14.2936 3.48389 13.0061 3.48389 11.4015C3.48389 9.98277 3.65094 8.799 3.86518 7.8642Z"/><rect width="1.8" height="3" x="7.8" y="9.6" fill="#fff" rx=".9"/><rect width="1.8" height="3" x="14.4" y="9.6" fill="#fff" rx=".9"/></g></svg>