<svg xmlns="http://www.w3.org/2000/svg" width="24" height="24" fill="none" viewBox="0 0 24 24"><mask id="mask0_986_749" width="24" height="24" x="0" y="0" maskUnits="userSpaceOnUse" style="mask-type:alpha"><rect width="24" height="24" fill="#D9D9D9"/></mask><path stroke="#1D1C23" stroke-linejoin="round" stroke-width="1.5" d="M11.375 4.22687C11.7618 4.00358 12.2382 4.00358 12.625 4.22687L18.4192 7.57217C18.806 7.79546 19.0442 8.20812 19.0442 8.6547V15.3453C19.0442 15.7919 18.806 16.2045 18.4192 16.4278L12.625 19.7731C12.2382 19.9964 11.7618 19.9964 11.375 19.7731L5.58077 16.4278C5.19402 16.2045 4.95577 15.7919 4.95577 15.3453V8.6547C4.95577 8.20812 5.19402 7.79546 5.58077 7.57217L11.375 4.22687Z"/><path stroke="#1D1C23" stroke-linejoin="round" stroke-width="1.5" d="M18.7494 8.36328L11.9978 12.2614M11.9978 12.2614L5.24609 8.36328M11.9978 12.2614V19.8748"/></svg>